# xmcd
#
# Track frame offsets:
#	150
#	15082
#	35490
#	53707
#	81385
#	101342
#	117962
#	137417
#	155132
#	176572
#	201597
#	224637
#
# Disc length: 3197 seconds
# Revision: 3
# Processed by: cddbd v1.5.2PL0 Copyright (c) Steve Scherf et al.
# Submitted via: dBpowerAMP V12.0
#
DISCID=a40c7b0c
DTITLE=Little Smokey Smothers - Second Time Around
DYEAR=1996
DGENRE=Blues
TTITLE0=Bluesman
TTITLE1=Second Time Around
TTITLE2=Soft Winds
TTITLE3=Crack Head Woman
TTITLE4=I Get Evil
TTITLE5=Clouds in my Heart
TTITLE6=Got to be Some Changes Made
TTITLE7=In The Zone
TTITLE8=Somebody
TTITLE9=Let me in
TTITLE10=My Baby's Gone
TTITLE11=I Better go Now
EXTD=
EXTT0=
EXTT1=
EXTT2=
EXTT3=
EXTT4=
EXTT5=
EXTT6=
EXTT7=
EXTT8=
EXTT9=
EXTT10=
EXTT11=
PLAYORDER=
